<?xml version="1.0" standalone="no"?>
<!DOCTYPE svg PUBLIC "-//W3C//DTD SVG 20010904//EN"
 "http://www.w3.org/TR/2001/REC-SVG-20010904/DTD/svg10.dtd">
<svg version="1.0" xmlns="http://www.w3.org/2000/svg"
 width="1200.000000pt" height="1311.000000pt" viewBox="0 0 1200.000000 1311.000000"
 preserveAspectRatio="xMidYMid meet">

<g transform="translate(0.000000,1311.000000) scale(0.100000,-0.100000)"
fill="#000000" stroke="none">
<path d="M5500 10599 c-1081 -239 -2801 -534 -3988 -684 -123 -15 -213 -31
-226 -40 -38 -25 -60 -96 -37 -121 20 -20 97 -219 162 -414 144 -436 262 -925
409 -1693 28 -143 49 -261 47 -262 -1 -1 -42 -16 -92 -33 -49 -17 -97 -33
-106 -37 -14 -5 -24 23 -64 187 -214 870 -471 1682 -688 2173 -38 88 -71 162
-73 164 -4 5 -163 -38 -189 -51 -30 -15 -55 -50 -55 -76 0 -13 27 -67 61 -120
167 -266 413 -819 624 -1402 64 -177 305 -888 305 -899 0 -4 -33 -19 -73 -35
-160 -64 -292 -135 -354 -191 -170 -154 -161 -380 18 -466 150 -72 312 -68
653 18 76 19 142 31 146 26 19 -22 201 -1395 289 -2188 102 -916 151 -1511
172 -2110 10 -304 6 -504 -17 -731 -6 -55 -4 -63 17 -82 14 -14 36 -22 56 -22
19 0 116 30 216 66 751 274 1908 614 3009 884 1705 418 3564 754 4945 894 138
14 250 30 262 38 12 7 28 28 37 46 15 33 14 39 -40 220 -261 880 -507 2117
-652 3288 l-18 140 91 102 c51 56 120 144 154 195 l62 92 -108 3 -108 3 -50
-58 c-201 -230 -434 -363 -717 -409 -167 -28 -296 -5 -368 65 -46 45 -69 91
-83 167 -13 72 2 190 37 281 17 47 20 65 11 68 -7 2 -66 18 -132 34 -66 17
-150 39 -185 50 -76 24 -83 19 -76 -49 10 -89 28 -526 24 -589 -4 -56 -8 -67
-36 -92 -56 -50 -227 -89 -391 -89 -80 0 -99 8 -114 52 -3 9 7 72 23 140 95
412 120 661 74 749 -20 40 -72 76 -129 90 -76 18 -95 27 -95 46 0 13 -33 35
-107 73 -249 128 -526 303 -738 464 -54 42 -100 74 -102 73 -1 -2 10 -93 26
-203 16 -109 37 -272 47 -361 l17 -162 41 25 c87 54 225 115 306 135 69 18
103 21 185 16 119 -7 178 -25 235 -74 57 -49 80 -101 80 -184 0 -187 -120
-391 -389 -659 -270 -270 -484 -400 -657 -400 -56 0 -67 3 -98 30 -41 37 -56
92 -56 211 0 256 -93 892 -185 1264 -99 403 -145 509 -246 561 -45 23 -36 42
34 74 65 29 208 70 246 70 12 0 21 3 21 6 0 3 -50 60 -112 127 -316 345 -552
677 -756 1067 -73 140 -183 382 -222 488 -13 34 -25 62 -29 61 -3 -1 -85 -18
-181 -40z m-1708 -1879 c30 -30 30 -31 24 -118 -15 -216 -18 -581 -6 -802 6
-129 12 -236 13 -237 1 -1 110 18 242 42 497 90 812 128 1030 123 132 -3 157
-6 172 -21 26 -25 10 -44 -81 -91 -108 -57 -184 -116 -294 -226 -128 -129
-211 -242 -282 -385 -76 -155 -107 -278 -84 -339 14 -36 93 -8 172 59 124 107
273 371 357 633 22 68 34 88 67 117 51 43 183 109 265 131 58 16 64 16 87 0
14 -9 29 -28 32 -43 4 -15 -5 -102 -20 -197 -41 -261 -49 -342 -44 -451 6
-134 33 -197 121 -278 57 -53 61 -58 44 -71 -28 -21 -141 -39 -212 -34 -121
10 -252 99 -310 211 l-27 52 -87 -88 c-230 -236 -511 -321 -684 -206 -119 79
-178 278 -127 429 47 141 145 313 245 429 25 29 44 56 41 58 -8 9 -581 -79
-593 -91 -23 -23 128 -730 203 -955 33 -99 30 -120 -24 -149 -48 -27 -203 -62
-274 -62 -41 0 -54 5 -87 36 -25 22 -45 52 -55 82 -8 26 -47 254 -87 507 -39
253 -73 462 -75 464 -3 3 -334 -77 -495 -119 l-36 -10 48 -287 c115 -694 119
-723 107 -748 -21 -46 -171 -88 -361 -101 -82 -5 -96 -3 -125 15 -72 46 -89
107 -166 619 -29 194 -55 354 -58 357 -2 2 -141 -32 -309 -76 -469 -123 -556
-140 -709 -140 -218 1 -291 74 -201 205 66 96 194 169 492 279 162 61 506 173
607 199 24 6 46 16 49 23 8 22 -128 748 -148 787 -12 24 -32 42 -58 54 -70 30
-65 50 29 114 85 58 192 108 319 150 169 56 227 66 272 48 59 -25 68 -59 80
-285 9 -196 41 -524 79 -823 11 -85 20 -160 20 -167 0 -7 98 14 266 57 147 38
267 70 268 72 1 2 -19 233 -44 513 -47 510 -55 562 -93 594 -34 28 -20 49 58
86 90 43 255 83 348 84 63 1 71 -1 99 -29z m2783 -599 c76 -34 130 -122 141
-229 7 -67 10 -65 -81 -77 -141 -19 -323 -95 -445 -185 -84 -63 -113 -94 -144
-156 -50 -99 -26 -175 72 -227 31 -17 142 -51 279 -87 256 -65 287 -77 338
-122 77 -67 98 -173 61 -302 -73 -250 -412 -617 -702 -760 -186 -92 -310 -106
-415 -50 -105 57 -264 243 -257 302 4 37 26 38 105 7 58 -24 78 -27 143 -23
100 6 162 35 278 132 103 87 207 198 294 313 121 163 117 270 -12 335 -32 16
-87 32 -130 38 -41 6 -142 27 -223 47 -169 40 -216 67 -254 143 -30 57 -31
153 -3 243 72 232 400 524 735 653 75 29 164 31 220 5z m1419 -1384 c14 -22
-32 -117 -129 -262 -238 -359 -686 -749 -1135 -988 -403 -215 -896 -355 -1430
-408 -69 -7 -252 -13 -407 -13 -156 1 -283 -1 -283 -3 0 -13 70 -138 105 -188
163 -229 573 -490 981 -624 222 -73 412 -102 659 -102 193 0 350 20 529 66
326 83 547 205 741 406 242 252 381 572 436 1004 28 215 8 616 -41 851 -22
107 -19 126 18 122 22 -3 29 -12 44 -63 64 -210 109 -549 110 -810 0 -461 -87
-779 -297 -1095 -155 -233 -339 -397 -605 -538 -400 -213 -962 -277 -1495
-171 -300 60 -625 185 -884 341 -220 133 -442 333 -574 518 -112 157 -208 371
-252 560 -17 74 -20 140 -6 140 6 0 73 -16 151 -35 459 -112 991 -125 1487
-35 111 20 369 83 493 121 508 154 1004 450 1399 834 119 116 175 178 314 349
40 48 53 52 71 23z"/>
<path d="M2180 7325 c-165 -48 -309 -100 -430 -154 -136 -61 -190 -96 -190
-121 0 -17 7 -20 44 -20 81 0 333 50 586 117 74 20 139 39 143 43 12 11 -13
170 -27 170 -6 -1 -63 -16 -126 -35z"/>
<path d="M7404 7694 c-116 -60 -108 -15 -72 -377 18 -175 35 -317 39 -317 15
0 131 123 164 174 68 107 115 255 115 364 0 180 -90 238 -246 156z"/>
<path d="M9573 7484 c-4 -22 -8 -82 -8 -135 0 -81 3 -100 19 -118 24 -26 65
-27 114 -2 42 22 163 144 209 211 l31 46 -136 12 c-76 7 -156 15 -179 18 l-42
6 -8 -38z"/>
<path d="M10431 6668 c-1 -26 133 -682 201 -978 182 -802 387 -1543 594 -2146
l65 -192 77 18 c97 22 108 27 125 53 31 50 28 66 -48 241 -339 786 -683 1804
-984 2911 -16 61 -30 102 -30 93z"/>
<path d="M6215 2349 c-1405 -366 -2774 -794 -3737 -1169 l-108 -41 0 -120 c0
-114 1 -121 25 -144 13 -14 35 -25 49 -25 14 0 105 38 203 84 907 426 2023
864 3353 1317 239 81 428 148 420 148 -8 0 -100 -23 -205 -50z"/>
</g>
</svg>
