<?xml version="1.0" standalone="no"?>
<!DOCTYPE svg PUBLIC "-//W3C//DTD SVG 20010904//EN"
 "http://www.w3.org/TR/2001/REC-SVG-20010904/DTD/svg10.dtd">
<svg version="1.0" xmlns="http://www.w3.org/2000/svg"
 width="483.000000pt" height="224.000000pt" viewBox="0 0 483.000000 224.000000"
 preserveAspectRatio="xMidYMid meet">

<g transform="translate(0.000000,224.000000) scale(0.100000,-0.100000)"
fill="#000000" stroke="none">
<path d="M560 1661 c0 -5 11 -12 24 -15 24 -6 24 -7 28 -154 3 -160 10 -183
65 -219 40 -27 143 -25 180 3 53 39 61 67 69 222 7 138 8 143 30 148 13 3 21
10 18 15 -7 12 -134 11 -134 -1 0 -5 4 -10 9 -10 5 0 17 -7 25 -16 13 -12 16
-40 16 -142 0 -145 -8 -169 -63 -195 -45 -23 -85 -16 -118 19 -22 24 -24 34
-28 170 l-3 145 31 12 c17 6 31 15 31 19 0 4 -40 8 -90 8 -49 0 -90 -4 -90 -9z"/>
<path d="M1005 1637 c-28 -28 -35 -43 -35 -75 0 -54 30 -88 104 -122 34 -15
66 -33 73 -41 40 -49 10 -119 -51 -119 -42 0 -83 32 -94 71 -12 49 -27 38 -30
-21 -3 -51 -1 -55 20 -56 13 -1 42 -7 66 -14 92 -27 162 25 162 121 0 62 -20
85 -111 128 -68 33 -74 39 -77 69 -7 70 65 97 116 44 15 -15 33 -37 39 -47 11
-17 12 -12 10 34 l-2 55 -78 4 c-77 4 -77 4 -112 -31z"/>
<path d="M1337 1650 c-75 -41 -116 -145 -96 -242 9 -40 21 -63 53 -94 79 -79
192 -85 279 -13 54 45 48 66 -8 27 -37 -26 -55 -32 -101 -32 -52 -1 -58 1 -94
40 -45 49 -65 109 -56 177 13 112 98 168 186 122 30 -16 80 -74 80 -93 0 -7 5
-12 10 -12 11 0 13 37 4 91 -5 30 -10 36 -33 37 -14 1 -62 4 -106 7 -68 4 -86
2 -118 -15z"/>
<path d="M1657 1664 c-12 -12 -8 -21 11 -26 14 -4 35 -54 83 -192 36 -103 69
-188 74 -189 6 -1 41 76 80 170 74 183 92 213 126 213 12 0 19 5 17 13 -3 8
-26 12 -68 12 -42 0 -65 -4 -67 -12 -3 -7 2 -13 11 -13 29 0 21 -31 -66 -263
-6 -16 -14 -25 -18 -20 -13 15 -80 227 -80 256 0 22 4 27 26 27 16 0 24 5 22
13 -5 13 -139 23 -151 11z"/>
<path d="M2685 1653 c-41 -22 -41 -22 -17 -39 21 -15 22 -22 22 -184 l0 -168
38 -2 c20 0 52 -2 70 -2 66 -3 130 79 117 148 -9 52 -54 97 -96 98 -19 0 -44
-3 -56 -7 -22 -8 -22 -6 -25 79 -2 48 -7 89 -13 90 -5 2 -23 -4 -40 -13z m129
-183 c83 -31 68 -190 -18 -190 -48 0 -56 15 -56 102 0 63 3 79 18 87 22 13 25
13 56 1z"/>
<path d="M2000 1575 c-10 -12 -10 -18 0 -30 20 -25 55 -15 55 15 0 30 -35 40
-55 15z"/>
<path d="M2954 1576 c-10 -26 4 -48 28 -44 17 2 23 10 23 28 0 18 -6 26 -23
28 -13 2 -25 -3 -28 -12z"/>
<path d="M2126 1514 c-34 -39 -36 -44 -18 -44 20 0 21 -6 24 -97 3 -94 4 -98
29 -110 20 -10 34 -10 58 -2 41 15 39 29 -4 29 l-35 0 0 89 0 90 37 3 c52 4
56 28 4 28 -39 0 -41 2 -41 30 0 17 -3 30 -7 29 -5 0 -25 -21 -47 -45z"/>
<path d="M2010 1491 c-47 -21 -47 -21 -27 -32 14 -8 17 -25 17 -94 0 -78 -2
-85 -20 -85 -11 0 -20 -4 -20 -10 0 -6 28 -10 65 -10 37 0 65 4 65 10 0 6 -9
10 -20 10 -18 0 -20 8 -22 114 l-3 113 -35 -16z"/>
<path d="M2333 1496 c-17 -8 -39 -26 -48 -40 -23 -34 -23 -118 0 -152 21 -32
79 -58 114 -49 31 8 71 43 71 62 0 18 -7 16 -30 -7 -43 -43 -116 -7 -127 62
l-5 37 78 3 c78 3 79 3 76 28 -6 54 -71 82 -129 56z m58 -16 c10 -6 19 -20 19
-30 0 -17 -7 -20 -45 -20 -49 0 -55 10 -25 40 23 23 25 23 51 10z"/>
<path d="M2596 1489 c-21 -17 -26 -18 -26 -5 0 19 -10 20 -45 4 -29 -13 -31
-21 -10 -38 11 -9 15 -33 15 -87 0 -66 -2 -75 -20 -80 -41 -11 -18 -23 45 -23
62 0 91 15 43 22 -21 3 -23 9 -26 70 -4 85 9 112 49 106 33 -5 55 13 45 37 -8
21 -39 19 -70 -6z"/>
<path d="M2955 1488 c-38 -20 -39 -21 -17 -31 20 -9 22 -17 22 -89 0 -71 -2
-80 -20 -85 -40 -11 -18 -23 40 -23 58 0 80 12 40 23 -17 4 -20 15 -22 115
l-3 110 -40 -20z"/>
<path d="M1726 1114 c-26 -25 -24 -29 33 -72 14 -11 21 -24 17 -30 -10 -17
-36 -15 -42 3 -8 19 -24 19 -24 0 0 -16 42 -30 65 -21 9 3 15 18 15 36 0 23
-6 33 -24 40 -30 11 -41 29 -27 43 7 7 16 5 31 -8 17 -15 20 -16 20 -3 0 15
-19 28 -40 28 -5 0 -16 -7 -24 -16z"/>
<path d="M1889 1123 c-7 -62 -2 -133 9 -133 7 0 12 14 12 35 0 26 4 35 16 35
13 0 15 -8 12 -35 -3 -28 -1 -35 13 -35 15 0 16 5 7 40 -8 29 -16 40 -29 40
-13 0 -19 7 -19 24 0 23 -19 48 -21 29z"/>
<path d="M2169 1125 c-1 -6 0 -34 1 -64 1 -36 -2 -56 -11 -62 -10 -6 -7 -9 11
-9 24 0 25 2 22 62 -2 35 -8 67 -13 73 -6 6 -9 6 -10 0z"/>
<path d="M2368 1119 c-10 -5 -18 -18 -18 -29 0 -10 -6 -21 -12 -23 -10 -4 -10
-6 0 -6 15 -1 16 -43 0 -59 -9 -9 -6 -12 17 -12 23 0 26 3 17 12 -18 18 -15
56 6 61 15 4 15 5 -2 6 -12 1 -16 6 -12 17 3 9 6 18 6 20 0 2 9 4 21 4 11 0
17 5 14 10 -8 12 -15 12 -37 -1z"/>
<path d="M2440 1120 c0 -5 5 -10 10 -10 14 0 12 -94 -2 -109 -11 -10 -2 -12
42 -9 45 2 55 7 58 22 4 19 3 19 -13 2 -24 -24 -49 -16 -53 17 -4 29 6 35 26
15 9 -9 12 -7 12 9 0 16 -5 20 -20 16 -16 -4 -20 0 -20 20 0 21 4 24 23 20 12
-3 28 -11 36 -17 12 -9 12 -8 2 12 -9 18 -20 22 -56 22 -25 0 -45 -4 -45 -10z"/>
<path d="M2750 1099 c0 -5 5 -7 10 -4 6 3 10 8 10 11 0 2 -4 4 -10 4 -5 0 -10
-5 -10 -11z"/>
<path d="M3115 1100 c3 -5 8 -10 11 -10 2 0 4 5 4 10 0 6 -5 10 -11 10 -5 0
-7 -4 -4 -10z"/>
<path d="M1810 1050 c-21 -39 33 -85 56 -48 5 7 2 9 -8 5 -19 -7 -38 11 -38
36 0 15 5 18 25 13 14 -4 25 -2 25 4 0 19 -49 11 -60 -10z"/>
<path d="M1980 1051 c-19 -36 14 -70 53 -55 39 14 24 74 -18 74 -14 0 -29 -8
-35 -19z m57 -11 c2 -8 -1 -22 -7 -30 -8 -13 -11 -13 -26 2 -10 9 -14 24 -10
33 7 20 40 16 43 -5z"/>
<path d="M2077 1063 c-11 -11 -8 -48 5 -61 32 -32 87 18 58 53 -13 15 -51 20
-63 8z m48 -33 c0 -36 -29 -33 -33 3 -3 23 0 28 15 25 12 -2 18 -12 18 -28z"/>
<path d="M2250 1051 c-23 -45 30 -81 62 -41 13 17 15 26 8 41 -14 25 -56 25
-70 0z m51 -3 c2 -15 -2 -42 -6 -46 -1 -1 -10 0 -19 4 -16 6 -22 35 -9 47 11
12 33 8 34 -5z"/>
<path d="M2560 1028 c0 -26 4 -38 14 -38 9 0 13 11 12 33 -1 22 3 32 14 32 11
0 15 -10 14 -32 -2 -23 2 -33 13 -33 10 0 13 6 9 16 -3 9 -6 26 -6 40 0 20 -4
23 -35 22 -34 -1 -35 -3 -35 -40z"/>
<path d="M2657 1057 c-3 -8 -2 -20 3 -27 4 -7 3 -26 -2 -43 -11 -31 0 -47 32
-46 8 0 5 4 -8 10 -29 11 -20 29 15 29 20 0 24 -4 18 -17 -5 -14 -3 -15 6 -6
18 18 3 43 -28 43 -26 1 -27 1 -8 12 21 12 44 38 45 51 0 13 -68 7 -73 -6z
m41 -14 c-4 -22 -22 -20 -26 1 -2 10 3 16 13 16 10 0 15 -7 13 -17z"/>
<path d="M2745 1030 c0 -29 4 -40 15 -40 12 0 15 9 12 40 -5 53 -28 53 -27 0z"/>
<path d="M2794 1031 c1 -30 5 -41 16 -41 12 0 15 8 12 35 -3 28 -1 35 13 35
14 0 16 -7 13 -35 -3 -27 0 -35 12 -35 14 0 16 7 11 38 -6 34 -9 37 -42 40
-35 3 -35 3 -35 -37z"/>
<path d="M2897 1063 c-4 -3 -7 -19 -7 -35 0 -31 20 -45 48 -32 15 7 15 8 -5
11 -32 6 -38 33 -8 33 16 0 25 6 25 15 0 15 -40 21 -53 8z"/>
<path d="M2971 1048 c-11 -29 3 -58 29 -58 27 0 34 18 8 22 -32 5 -35 28 -3
28 32 0 29 23 -3 28 -16 2 -25 -4 -31 -20z"/>
<path d="M3048 1029 c-3 -31 0 -39 13 -39 12 0 15 7 11 27 -3 17 1 30 12 38
15 11 14 13 -8 13 -21 0 -25 -6 -28 -39z"/>
<path d="M3115 1030 c0 -29 4 -40 15 -40 12 0 15 9 12 40 -5 53 -28 53 -27 0z"/>
<path d="M3165 1030 c0 -24 4 -40 11 -40 7 0 11 14 10 33 -1 22 3 32 14 32 11
0 15 -10 14 -32 -1 -22 3 -33 12 -33 8 0 14 10 14 24 0 43 -10 56 -44 56 -30
0 -31 -2 -31 -40z"/>
<path d="M3257 1057 c-3 -8 -2 -20 3 -27 4 -7 3 -26 -2 -43 -8 -22 -8 -31 3
-38 21 -13 45 -11 59 6 18 22 4 45 -27 45 -28 1 -28 1 -5 13 12 7 29 23 38 35
15 22 14 22 -24 22 -24 0 -42 -5 -45 -13z m43 -11 c0 -8 -4 -17 -9 -21 -12 -7
-24 12 -16 25 9 15 25 12 25 -4z m18 -78 c-7 -20 -48 -23 -48 -4 0 11 9 16 26
16 16 0 24 -5 22 -12z"/>
<path d="M1727 894 c7 -3 9 -12 6 -21 -4 -11 -2 -14 5 -9 8 5 12 -3 12 -26 0
-61 14 -65 49 -14 18 25 34 46 37 46 8 0 -8 -54 -22 -77 -13 -21 -13 -23 6
-23 14 0 20 7 20 24 0 30 20 89 34 98 6 5 2 8 -10 8 -13 0 -33 -17 -55 -47
l-34 -48 -8 48 c-8 39 -13 47 -31 46 -11 0 -16 -3 -9 -5z"/>
<path d="M2166 886 c3 -7 -4 -36 -15 -65 -19 -51 -19 -51 1 -51 10 0 16 5 13
10 -3 6 -3 19 0 30 5 15 15 20 41 20 38 0 41 -6 18 -38 -14 -20 -14 -22 4 -22
14 0 20 7 20 25 0 13 8 42 19 65 20 39 20 40 1 40 -10 0 -17 -3 -15 -7 3 -5 1
-18 -4 -30 -6 -17 -16 -23 -39 -23 -34 0 -40 19 -14 44 14 15 13 16 -10 16
-17 0 -24 -4 -20 -14z"/>
<path d="M2476 887 c3 -8 -4 -35 -16 -62 -23 -53 -20 -74 4 -27 17 33 46 50
46 27 0 -8 -9 -24 -20 -35 -16 -16 -17 -20 -5 -20 19 0 40 43 31 65 -3 10 -12
15 -21 12 -11 -5 -12 -1 -5 19 13 33 13 34 -5 34 -8 0 -12 -6 -9 -13z"/>
<path d="M2597 892 c13 -8 -1 -85 -20 -109 -7 -10 0 -13 29 -12 24 1 30 3 16
6 -16 3 -21 10 -18 21 3 9 8 34 12 55 5 29 11 37 28 37 47 0 62 -54 26 -90
-22 -22 -13 -27 13 -7 9 6 19 24 22 39 10 39 -23 68 -77 68 -24 0 -38 -4 -31
-8z"/>
<path d="M3559 871 c-14 -15 -23 -33 -21 -39 8 -24 -20 -93 -41 -102 -15 -6
-17 -9 -6 -9 22 -1 35 17 54 69 9 25 21 48 28 52 9 6 9 8 -1 8 -10 0 -10 5 -2
21 7 12 18 18 26 15 8 -3 14 -1 14 4 0 19 -26 10 -51 -19z"/>
<path d="M2796 843 c-11 -14 -14 -23 -8 -19 15 9 15 10 -8 -51 -11 -29 -16
-53 -11 -53 5 0 17 27 27 60 10 34 24 60 31 60 18 0 16 -25 -3 -44 -8 -9 -12
-16 -7 -16 30 0 45 56 18 66 -8 4 -12 10 -9 15 13 21 -13 6 -30 -18z"/>
<path d="M3035 857 c-5 -7 -11 -19 -12 -27 -1 -8 -5 -26 -9 -39 -5 -17 -4 -23
6 -19 7 2 14 16 15 32 0 15 5 30 10 34 12 9 18 32 8 32 -5 -1 -12 -6 -18 -13z"/>
<path d="M3385 857 c-5 -7 -11 -19 -12 -27 -1 -8 -5 -26 -9 -39 -5 -17 -4 -23
6 -19 7 2 14 16 15 32 0 15 5 30 10 34 12 9 18 32 8 32 -5 -1 -12 -6 -18 -13z"/>
<path d="M1889 848 c0 -2 -2 -12 -4 -23 -1 -11 -6 -28 -10 -39 -6 -14 -5 -17
6 -14 8 3 13 10 12 16 -2 6 2 23 7 37 6 16 6 25 0 25 -6 0 -10 -1 -11 -2z"/>
<path d="M1923 837 c-3 -6 -1 -7 5 -3 15 9 15 -9 1 -36 -19 -35 -2 -30 19 7
25 41 46 48 32 9 -14 -36 -12 -44 6 -37 9 3 12 8 5 12 -6 4 -7 12 -1 21 6 8
10 20 10 27 0 14 -68 15 -77 0z"/>
<path d="M2033 838 c-16 -20 -14 -78 3 -78 13 0 19 -12 15 -33 -1 -5 3 -6 9
-2 16 10 12 33 -7 44 -17 10 -17 12 0 25 20 15 20 47 1 53 -6 2 -16 -2 -21 -9z
m27 -12 c0 -17 -14 -29 -23 -20 -8 8 3 34 14 34 5 0 9 -6 9 -14z"/>
<path d="M2295 840 c-3 -5 -3 -21 1 -36 6 -23 4 -26 -10 -21 -9 4 -16 2 -16
-4 0 -6 8 -9 18 -7 12 2 17 13 16 33 0 17 4 33 10 37 8 5 7 8 -1 8 -6 0 -14
-4 -18 -10z"/>
<path d="M2349 848 c-6 -22 -8 -80 -3 -75 5 4 9 14 10 21 1 7 5 23 9 35 4 12
2 21 -4 21 -6 0 -11 -1 -12 -2z"/>
<path d="M2423 839 c1 -6 -4 -14 -12 -17 -9 -3 -11 0 -7 9 4 8 0 5 -8 -5 -9
-11 -16 -25 -16 -32 0 -20 20 -28 33 -14 9 10 9 11 0 6 -24 -13 -22 12 2 28
25 17 33 36 15 36 -5 0 -9 -5 -7 -11z"/>
<path d="M2755 839 c4 -6 -2 -13 -13 -16 -24 -6 -37 -32 -23 -46 6 -6 16 -5
28 3 16 10 16 11 1 6 -11 -3 -18 0 -18 9 0 7 9 17 20 20 21 7 28 35 9 35 -5 0
-7 -5 -4 -11z"/>
<path d="M2876 828 c-27 -39 -17 -75 12 -46 9 9 12 9 12 0 0 -6 6 -9 13 -7 6
3 13 21 14 40 1 28 -2 35 -17 35 -10 0 -26 -10 -34 -22z m34 -2 c0 -16 -28
-42 -36 -33 -7 6 18 47 28 47 5 0 8 -6 8 -14z"/>
<path d="M2944 838 c-5 -7 -2 -8 6 -3 10 6 12 1 6 -26 l-6 -34 19 31 c11 18
25 34 33 36 7 3 -2 5 -19 6 -18 0 -36 -4 -39 -10z"/>
<path d="M3080 840 c-10 -6 -11 -10 -3 -10 9 0 10 -7 3 -26 -15 -39 -12 -42 9
-8 32 52 58 54 30 2 -19 -36 -2 -30 20 8 25 42 38 39 23 -5 -12 -34 -2 -41 19
-14 10 11 10 14 2 9 -16 -9 -16 -1 -3 24 12 23 -4 37 -24 20 -11 -8 -15 -8
-18 2 -4 11 -8 11 -20 0 -10 -8 -17 -9 -20 -3 -2 7 -8 7 -18 1z"/>
<path d="M3242 839 c2 -6 -3 -14 -11 -17 -9 -3 -11 0 -7 9 4 8 0 5 -8 -5 -9
-11 -16 -28 -16 -38 0 -19 25 -25 35 -8 4 6 1 9 -6 8 -6 -2 -14 3 -16 10 -3 6
2 12 10 12 21 0 41 26 27 35 -6 4 -9 1 -8 -6z"/>
<path d="M3279 848 c0 -2 -2 -21 -4 -43 l-4 -39 18 31 c11 17 25 34 31 38 12
7 9 -8 -8 -54 -3 -8 0 -12 8 -9 14 4 26 78 12 78 -4 0 -13 -5 -20 -12 -9 -9
-12 -9 -12 0 0 10 -19 18 -21 10z"/>
<path d="M3472 838 c-7 -7 -12 -19 -12 -27 0 -11 5 -9 16 7 17 25 34 29 34 9
0 -18 -34 -49 -43 -40 -4 3 -7 1 -7 -5 0 -21 29 -13 46 13 26 40 -2 75 -34 43z"/>
<path d="M1695 780 c-3 -5 1 -10 10 -10 9 0 13 5 10 10 -3 6 -8 10 -10 10 -2
0 -7 -4 -10 -10z"/>
<path d="M2003 746 c1 -11 9 -21 17 -23 10 -3 11 -2 4 4 -6 4 -14 15 -17 23
-5 11 -6 9 -4 -4z"/>
<path d="M1727 663 c2 -16 -5 -45 -16 -66 l-19 -38 51 3 c34 2 52 8 55 18 4
12 2 13 -9 3 -7 -7 -25 -13 -41 -13 -24 0 -26 3 -19 23 5 14 17 22 30 21 11 0
21 5 21 12 0 7 -8 10 -20 7 -24 -6 -26 6 -6 33 13 16 18 17 35 6 18 -10 21
-10 21 3 0 11 -11 15 -43 15 -42 0 -43 -1 -40 -27z"/>
<path d="M1837 629 c-18 -62 -16 -82 5 -61 9 9 9 12 0 12 -7 0 -5 16 8 46 21
49 24 64 13 64 -5 0 -16 -28 -26 -61z"/>
<path d="M2314 625 c-22 -66 -21 -73 6 -55 10 6 11 10 3 10 -9 0 -7 14 7 50
22 57 23 60 13 60 -5 0 -18 -30 -29 -65z"/>
<path d="M2634 681 c9 -15 -5 -41 -21 -41 -12 0 -13 -3 -5 -13 9 -10 7 -19 -4
-35 -18 -26 -39 -29 -29 -4 16 41 17 46 2 27 -28 -35 -22 -55 16 -52 17 2 31
8 30 15 -2 6 4 30 12 53 18 49 18 59 4 59 -5 0 -8 -4 -5 -9z"/>
<path d="M2724 665 c-20 -20 -25 -34 -22 -63 3 -36 4 -37 44 -40 35 -3 42 0
47 18 5 20 4 21 -12 6 -24 -22 -58 -20 -64 3 -7 27 19 80 45 91 18 7 19 9 5 9
-10 1 -29 -10 -43 -24z"/>
<path d="M3444 681 c10 -15 -14 -94 -33 -108 -12 -11 -5 -13 41 -13 44 0 57 4
63 18 5 14 4 15 -6 5 -15 -15 -69 -18 -69 -4 0 25 14 41 36 41 13 0 24 4 24 9
0 5 -9 7 -20 4 -21 -5 -25 3 -14 31 7 19 35 21 53 4 11 -11 13 -10 9 2 -3 10
-20 16 -47 18 -28 2 -41 0 -37 -7z"/>
<path d="M2790 671 c0 -6 5 -13 10 -16 6 -3 10 1 10 9 0 9 -4 16 -10 16 -5 0
-10 -4 -10 -9z"/>
<path d="M1999 614 c-22 -49 -21 -58 5 -48 12 4 14 9 7 14 -8 4 -7 17 4 43 22
54 8 45 -16 -9z"/>
<path d="M3040 636 c-7 -12 -14 -32 -15 -46 -1 -14 -10 -40 -19 -58 -16 -31
-16 -32 2 -32 15 0 18 6 15 23 -4 19 3 28 31 45 40 24 46 49 18 73 -17 15 -20
15 -32 -5z m37 -23 c4 -12 -23 -43 -37 -43 -4 0 -3 14 3 30 11 29 27 35 34 13z"/>
<path d="M3205 614 c-17 -45 -16 -62 4 -50 6 4 8 13 4 21 -3 9 -1 21 4 28 15
19 23 47 14 47 -5 0 -16 -21 -26 -46z"/>
<path d="M1905 628 c4 -11 2 -18 -4 -18 -6 0 -11 6 -11 13 -1 15 -29 -33 -30
-50 0 -16 36 -17 46 -1 4 7 3 8 -4 4 -7 -4 -16 -5 -22 -1 -14 8 -1 35 15 29
18 -7 30 15 16 29 -9 9 -11 8 -6 -5z"/>
<path d="M1953 632 c-7 -4 -16 -20 -22 -35 -9 -22 -8 -29 5 -34 8 -3 18 -3 21
1 4 3 1 6 -5 6 -19 0 -14 38 5 49 10 5 15 12 13 15 -3 3 -11 2 -17 -2z"/>
<path d="M2051 631 c-9 -6 -10 -10 -2 -12 9 -3 9 -12 2 -34 -9 -25 -8 -27 2
-11 6 11 20 28 30 38 20 22 23 35 3 19 -9 -8 -15 -8 -18 -2 -2 6 -9 7 -17 2z"/>
<path d="M2124 628 c-4 -6 -8 -24 -9 -40 -4 -43 17 -28 22 15 4 38 0 46 -13
25z"/>
<path d="M2176 621 c-20 -22 -21 -61 -2 -61 8 0 18 4 21 10 3 6 -1 7 -9 4 -12
-4 -16 0 -16 15 0 13 9 25 22 30 12 4 17 11 11 14 -6 4 -18 -2 -27 -12z"/>
<path d="M2230 613 c-30 -38 -26 -53 13 -50 17 2 31 9 30 15 -2 6 1 22 6 35
13 33 -22 34 -49 0z m40 9 c0 -12 -39 -46 -45 -41 -6 7 24 49 36 49 5 0 9 -4
9 -8z"/>
<path d="M2401 616 c-32 -34 -28 -56 12 -53 17 2 31 9 30 15 -2 6 1 22 6 35 7
18 6 23 -9 24 -10 1 -27 -9 -39 -21z m18 -22 c-12 -13 -25 -22 -27 -19 -9 8
29 56 39 49 6 -4 2 -15 -12 -30z"/>
<path d="M2480 630 c-10 -6 -11 -10 -3 -10 9 0 10 -7 2 -26 -14 -38 -7 -37 18
3 13 19 19 32 14 28 -5 -3 -11 -1 -13 5 -2 6 -8 6 -18 0z"/>
<path d="M2523 599 c-5 -21 -7 -39 -4 -39 9 0 29 70 22 75 -4 2 -12 -14 -18
-36z"/>
<path d="M2827 622 c-24 -27 -22 -62 3 -62 23 0 46 40 37 64 -8 21 -20 20 -40
-2z m33 -11 c0 -20 -27 -48 -37 -37 -9 8 14 56 27 56 5 0 10 -8 10 -19z"/>
<path d="M2903 633 c-7 -2 -10 -10 -7 -18 3 -7 1 -23 -6 -34 -15 -30 -7 -26
17 7 21 29 19 53 -4 45z"/>
<path d="M2935 630 c-3 -5 -1 -10 5 -10 7 0 8 -6 0 -19 -18 -35 -11 -47 9 -15
26 42 46 55 36 23 -4 -13 -10 -30 -13 -38 -3 -8 0 -12 8 -9 14 4 24 78 10 78
-5 0 -12 -5 -15 -10 -5 -8 -11 -8 -20 0 -9 8 -15 8 -20 0z"/>
<path d="M3119 638 c0 -2 -2 -12 -4 -23 -1 -11 -6 -28 -10 -37 -6 -15 -2 -18
26 -15 20 1 33 8 35 18 1 9 5 26 9 38 3 11 4 21 1 21 -10 0 -35 -57 -28 -64 3
-4 -1 -4 -11 0 -20 7 -20 9 -7 34 7 13 7 21 0 25 -5 3 -10 5 -11 3z"/>
<path d="M3277 621 c-3 -14 -1 -18 9 -14 16 6 18 19 5 27 -5 3 -11 -3 -14 -13z"/>
<path d="M3319 636 c0 0 -2 -19 -4 -41 l-3 -40 16 33 c8 17 22 32 29 32 7 0
13 4 13 9 0 6 -48 13 -51 7z"/>
<path d="M3545 630 c-3 -5 -1 -10 5 -10 7 0 8 -6 0 -19 -18 -35 -11 -47 9 -15
24 39 47 56 39 28 -3 -10 -9 -27 -13 -38 -6 -13 -4 -17 5 -14 14 4 26 78 12
78 -4 0 -13 -5 -20 -12 -9 -9 -12 -9 -12 0 0 15 -16 16 -25 2z"/>
<path d="M3642 623 c-5 -10 -7 -24 -5 -31 3 -7 -3 -24 -12 -38 -11 -18 -14
-29 -7 -36 7 -7 10 -4 9 8 -3 27 31 30 41 3 7 -17 11 -19 17 -9 5 9 0 20 -15
32 l-23 19 21 15 c26 18 28 39 6 48 -22 8 -22 8 -32 -11z m31 -18 c-3 -8 -9
-15 -14 -15 -10 0 -12 24 -3 33 11 11 24 -3 17 -18z"/>
<path d="M3719 623 c-12 -14 -12 -16 0 -8 11 6 13 4 8 -8 -4 -10 -10 -24 -14
-33 -4 -11 -2 -15 7 -12 7 2 15 21 17 41 4 42 1 44 -18 20z"/>
<path d="M3779 635 c-1 -5 -1 -13 0 -17 0 -4 -4 -19 -9 -33 -13 -34 -4 -32 14
3 9 18 11 33 5 43 -5 8 -9 10 -10 4z"/>
<path d="M3819 640 c-6 -54 -6 -80 1 -80 5 0 12 5 16 12 4 7 3 8 -4 4 -15 -9
-15 -1 -1 26 8 14 8 23 0 31 -6 6 -11 9 -12 7z"/>
<path d="M3896 626 c6 -15 4 -18 -9 -13 -16 6 -37 -18 -37 -42 0 -14 37 -14
45 -1 3 6 -1 7 -9 4 -11 -4 -16 0 -16 15 0 13 5 19 14 15 19 -7 31 15 17 29
-9 9 -10 7 -5 -7z"/>
<path d="M3957 621 c-4 -17 -3 -21 5 -13 5 5 8 16 6 23 -3 8 -7 3 -11 -10z"/>
<path d="M3991 631 c-9 -6 -10 -10 -2 -12 9 -3 9 -12 2 -34 -9 -25 -8 -27 2
-11 6 11 20 28 30 38 20 22 23 35 3 19 -9 -8 -15 -8 -18 -2 -2 6 -9 7 -17 2z"/>
<path d="M4064 628 c-4 -6 -8 -24 -9 -40 -4 -43 17 -28 22 15 4 38 0 46 -13
25z"/>
<path d="M4119 640 c0 -3 -2 -14 -4 -25 -1 -11 -6 -28 -10 -37 -12 -29 3 -20
19 10 9 18 11 33 5 43 -5 8 -9 12 -10 9z"/>
<path d="M4159 640 c-6 -54 -6 -80 1 -80 5 0 12 5 16 12 4 7 3 8 -4 4 -15 -9
-15 -1 -1 26 8 14 8 23 0 31 -6 6 -11 9 -12 7z"/>
<path d="M4213 628 c-6 -7 -11 -26 -11 -41 0 -15 -7 -34 -17 -41 -10 -7 -15
-18 -11 -24 10 -17 26 -15 20 2 -3 8 0 17 6 21 14 9 42 -14 33 -29 -4 -7 -1
-6 7 1 11 10 10 16 -5 33 -18 19 -18 21 -1 33 19 14 19 48 0 54 -6 2 -16 -2
-21 -9z m27 -12 c0 -16 -18 -31 -27 -22 -8 8 5 36 17 36 5 0 10 -6 10 -14z"/>
<path d="M3250 611 c-5 -11 -10 -27 -10 -35 0 -19 35 -22 46 -4 5 7 2 9 -8 5
-23 -8 -28 1 -18 29 11 29 5 32 -10 5z"/>
<path d="M3933 618 c-6 -7 -13 -21 -16 -31 -8 -22 19 -35 36 -18 9 9 8 11 -5
6 -20 -8 -23 6 -8 36 12 21 7 26 -7 7z"/>
</g>
</svg>
