<?xml version="1.0" standalone="no"?>
<!DOCTYPE svg PUBLIC "-//W3C//DTD SVG 20010904//EN"
 "http://www.w3.org/TR/2001/REC-SVG-20010904/DTD/svg10.dtd">
<svg version="1.0" xmlns="http://www.w3.org/2000/svg"
 width="876.000000pt" height="876.000000pt" viewBox="0 0 876.000000 876.000000"
 preserveAspectRatio="xMidYMid meet">

<g transform="translate(0.000000,876.000000) scale(0.100000,-0.100000)"
fill="#000000" stroke="none">
<path d="M4040 8749 c-926 -75 -1814 -446 -2515 -1051 -150 -130 -419 -407
-537 -553 -536 -667 -848 -1407 -955 -2265 -25 -208 -26 -782 0 -990 147
-1182 713 -2199 1632 -2935 551 -442 1241 -753 1945 -879 244 -44 393 -57 676
-63 624 -13 1148 80 1714 304 638 252 1217 662 1683 1193 885 1008 1256 2391
996 3715 -165 838 -559 1590 -1154 2204 -752 776 -1748 1241 -2825 1321 -157
12 -509 11 -660 -1z m533 -129 c225 -11 385 -29 584 -66 1743 -320 3113 -1709
3407 -3454 42 -244 58 -442 58 -710 0 -333 -24 -579 -87 -880 -246 -1177 -997
-2207 -2050 -2811 -1137 -651 -2551 -735 -3754 -222 -1097 468 -1938 1360
-2348 2492 -213 589 -290 1307 -208 1951 70 543 249 1082 523 1565 80 142 267
416 379 555 126 158 382 423 537 556 552 476 1212 800 1921 944 247 51 446 72
810 88 17 1 119 -3 228 -8z"/>
<path d="M4200 8125 c0 -95 12 -124 25 -62 16 72 60 117 116 117 l22 0 -6
-261 c-4 -166 -10 -266 -17 -275 -7 -7 -21 -14 -32 -16 -12 -2 -23 -9 -26 -15
-3 -10 24 -13 107 -15 61 -1 121 -2 133 -2 34 -1 32 20 -4 30 l-33 10 -3 272
c-2 271 -2 272 19 272 50 0 101 -57 111 -124 2 -11 9 -21 16 -24 9 -3 12 19
12 86 l0 89 -97 6 c-54 4 -153 7 -220 7 l-123 0 0 -95z"/>
<path d="M4020 8205 c-8 -2 -32 -6 -52 -10 -46 -7 -49 -20 -8 -29 17 -3 33
-13 37 -22 6 -15 -36 -178 -60 -237 -12 -28 -12 -27 -79 86 -38 62 -68 121
-68 130 0 9 11 19 25 23 14 3 25 13 25 21 0 11 -7 14 -22 10 -13 -3 -67 -11
-120 -18 -56 -7 -98 -17 -98 -23 0 -6 12 -18 28 -27 16 -10 62 -73 118 -165
87 -143 91 -152 102 -235 14 -97 10 -117 -24 -125 -28 -7 -33 -34 -6 -33 9 0
67 8 127 17 106 16 141 33 82 40 -36 4 -43 22 -61 144 l-15 98 51 152 c28 86
58 160 69 170 10 9 19 21 19 27 0 10 -35 13 -70 6z"/>
<path d="M4740 8193 c0 -4 12 -17 27 -29 l27 -21 -38 -244 c-21 -134 -42 -252
-47 -261 -5 -9 -20 -18 -34 -20 -66 -8 -15 -26 160 -55 105 -17 200 -32 212
-32 19 -1 25 11 48 85 28 93 25 117 -9 69 -67 -94 -125 -117 -228 -88 -22 6
-22 25 -2 159 18 114 23 120 73 79 25 -22 30 -34 33 -77 5 -94 23 -63 46 79
12 76 22 146 22 156 0 29 -15 19 -29 -20 -19 -51 -54 -83 -92 -83 -30 0 -31 2
-26 33 3 17 11 68 18 112 6 44 16 85 21 92 6 7 22 10 41 7 100 -18 131 -45
142 -124 4 -28 11 -52 15 -55 5 -3 13 28 20 67 6 40 13 83 16 96 2 12 1 22 -3
22 -5 0 -91 14 -193 30 -196 32 -220 34 -220 23z"/>
<path d="M3181 8026 c-100 -30 -140 -56 -88 -56 13 0 31 -8 39 -17 16 -19 148
-448 148 -483 0 -11 -9 -25 -20 -32 -19 -12 -28 -38 -12 -38 11 1 393 117 396
121 4 5 -24 202 -29 208 -11 11 -25 -15 -25 -47 0 -93 -47 -162 -122 -183 -33
-8 -44 -8 -55 3 -11 12 -104 301 -142 444 -13 50 -6 72 26 85 24 9 24 30 0 28
-7 0 -59 -15 -116 -33z"/>
<path d="M5430 8041 c-115 -35 -203 -152 -231 -305 -10 -55 -10 -75 5 -133 20
-84 55 -129 126 -165 70 -36 128 -37 197 -3 59 30 81 51 66 66 -6 6 -25 1 -54
-15 -90 -50 -168 -40 -209 26 -18 28 -21 44 -17 108 6 88 46 218 91 293 95
158 225 113 254 -87 4 -27 12 -49 17 -49 12 1 71 190 62 200 -4 3 -16 -2 -27
-12 -19 -17 -21 -17 -64 19 -75 61 -143 79 -216 57z"/>
<path d="M5855 7910 c-3 -5 3 -18 15 -30 11 -11 20 -25 20 -30 0 -6 -52 -111
-116 -235 l-117 -225 -39 0 c-26 0 -38 -4 -36 -12 7 -20 208 -122 219 -111 6
6 2 16 -11 28 -11 10 -20 24 -20 31 0 8 23 61 52 118 l52 104 78 -39 78 -39
-51 -98 c-68 -126 -67 -125 -106 -119 -61 10 -35 -17 70 -72 56 -29 134 -78
174 -107 73 -55 98 -57 67 -6 -14 25 -15 32 -3 54 14 26 232 319 234 315 1 -1
-6 -130 -16 -287 -17 -270 -15 -321 10 -295 4 6 84 111 176 233 l167 224 34
-7 c52 -9 42 13 -27 64 -39 28 -64 40 -70 34 -6 -6 -4 -14 6 -23 18 -15 19
-47 2 -76 -17 -29 -170 -234 -173 -231 -2 1 4 94 11 207 8 113 15 214 15 225
0 13 -19 35 -52 59 -71 54 -83 53 -79 -7 3 -47 1 -50 -139 -237 -156 -208
-162 -213 -220 -164 -23 20 -30 33 -26 48 6 21 195 392 222 434 12 17 23 22
46 20 61 -6 36 18 -72 72 -112 55 -142 60 -100 15 l24 -26 -49 -99 c-27 -55
-53 -100 -57 -100 -5 0 -40 16 -78 35 l-70 35 44 88 c50 100 64 115 102 110
15 -2 29 2 31 9 5 15 -214 127 -222 113z"/>
<path d="M2752 7861 c-152 -53 -206 -229 -125 -404 100 -213 308 -278 444
-138 80 83 92 214 31 345 -75 161 -221 243 -350 197z m86 -54 c52 -39 92 -95
145 -207 44 -90 51 -114 55 -180 3 -66 1 -78 -17 -97 -72 -75 -165 -19 -253
153 -89 173 -103 292 -39 341 26 20 75 15 109 -10z"/>
<path d="M2310 7594 c-53 -22 -250 -158 -246 -169 1 -5 20 -10 41 -10 l38 0
138 -200 c135 -196 155 -235 128 -262 -6 -6 -8 -16 -5 -22 8 -12 199 118 197
134 -1 6 -18 10 -38 10 -34 0 -39 5 -95 84 -32 46 -58 87 -58 91 0 4 20 21 45
39 77 55 102 131 70 209 -41 96 -126 134 -215 96z m55 -89 c43 -43 75 -104 75
-143 0 -18 -10 -38 -28 -55 l-28 -27 -72 104 c-40 58 -72 109 -72 115 0 15 42
41 67 41 12 0 38 -16 58 -35z"/>
<path d="M6875 7249 c-4 -6 -2 -16 4 -22 30 -30 11 -58 -161 -238 -180 -188
-175 -185 -238 -168 -32 8 -12 -19 72 -99 48 -46 92 -81 97 -77 7 4 5 14 -5
30 -9 13 -13 32 -10 42 4 10 85 99 180 198 l174 180 33 -12 c18 -7 36 -9 40
-5 4 4 -35 46 -86 95 -57 54 -96 83 -100 76z"/>
<path d="M4130 7169 c-653 -57 -1261 -340 -1725 -804 -695 -696 -969 -1695
-726 -2649 123 -482 359 -898 716 -1264 l91 -93 -73 -40 c-161 -88 -346 -229
-449 -342 -69 -76 -144 -180 -144 -198 0 -8 11 -36 24 -62 l24 -48 -82 6 c-44
3 -110 8 -146 11 l-65 4 138 -132 c75 -73 137 -137 137 -143 0 -5 -20 -64 -45
-129 -25 -65 -44 -120 -43 -122 2 -1 87 -6 188 -9 138 -5 219 -3 320 8 139 16
182 27 212 54 31 28 20 55 -62 143 l-79 85 52 53 c124 128 305 251 534 364
l161 79 59 -30 c503 -253 1145 -342 1719 -236 223 42 459 117 666 212 l97 45
126 -61 c219 -105 385 -215 524 -346 l70 -67 -74 -91 c-78 -95 -88 -122 -56
-151 46 -41 104 -49 399 -54 155 -2 282 -2 282 0 0 3 -22 60 -50 129 l-49 124
136 134 137 134 -121 -5 -120 -4 25 54 c29 64 29 64 -65 181 -109 137 -268
270 -453 379 -52 31 -97 57 -99 59 -2 1 46 54 106 117 218 226 377 452 508
721 206 420 297 841 282 1305 -30 954 -536 1812 -1357 2301 -489 291 -1084
427 -1650 378z m608 -103 c601 -90 1125 -356 1543 -783 201 -204 353 -415 478
-663 191 -377 276 -711 288 -1131 14 -484 -73 -878 -287 -1299 -131 -256 -272
-451 -483 -667 l-130 -132 -50 26 c-81 40 -312 128 -442 167 -227 67 -540 133
-658 138 -45 2 -52 -1 -87 -39 -44 -46 -60 -93 -60 -175 0 -52 -2 -58 -20 -58
-22 0 -22 8 -5 227 5 58 4 62 -17 65 -17 2 48 63 318 295 186 161 372 323 412
359 130 118 225 292 269 489 13 60 15 179 14 860 -2 820 2 908 40 1023 38 114
89 175 227 271 l123 86 -935 3 c-514 1 -1358 1 -1875 0 l-942 -3 121 -84 c123
-85 161 -123 200 -200 73 -145 73 -147 74 -1096 l1 -840 23 -80 c48 -166 156
-346 265 -440 29 -24 204 -176 390 -338 l339 -294 3 -79 c1 -43 6 -112 10
-151 l8 -73 -27 0 c-25 0 -26 3 -26 50 0 84 -19 149 -55 189 -31 33 -37 35
-86 33 -199 -8 -666 -128 -946 -243 -81 -33 -157 -63 -169 -65 -16 -4 -47 22
-145 124 -438 451 -689 1000 -750 1637 -14 146 -6 458 15 603 72 481 263 925
563 1302 86 109 314 337 423 423 419 333 916 531 1460 581 97 9 489 -3 588
-18z m-58 -1023 c-1 -20 -30 -43 -55 -43 -22 0 -26 -3 -19 -17 4 -10 7 -27 7
-38 0 -11 -3 -28 -7 -37 -7 -15 -3 -18 23 -18 17 0 31 -4 31 -8 0 -5 6 -17 14
-27 14 -19 15 -19 27 8 9 20 19 27 41 27 32 0 32 0 16 35 -9 19 -9 28 0 37 20
20 13 38 -14 38 -24 0 -53 23 -54 43 0 4 176 7 391 7 l391 0 -14 -22 c-10 -14
-28 -24 -47 -26 -32 -3 -32 -4 -16 -28 14 -22 14 -27 0 -54 l-16 -30 34 0 c27
0 36 -5 46 -27 l13 -28 14 28 c11 20 22 27 45 27 26 0 30 3 23 18 -9 22 -9 52
0 75 7 14 3 17 -19 17 -25 0 -54 23 -55 43 0 4 106 7 236 7 l237 0 -50 -53
c-28 -29 -58 -67 -67 -85 l-16 -31 -128 -3 -127 -3 -3 -32 -3 -33 -84 0 -84 0
-3 33 -3 32 -107 3 -108 3 0 -36 0 -35 -90 0 -90 0 0 35 0 35 -105 0 -105 0 0
-35 0 -35 -89 0 -90 0 -3 33 -3 32 -117 3 -118 3 0 84 0 85 160 0 c88 0 160
-3 160 -7z m-1005 -40 c3 -9 -1 -23 -10 -33 -10 -12 -15 -38 -15 -89 l0 -73
78 5 c42 2 89 8 104 12 21 6 27 3 33 -15 4 -11 2 -27 -4 -33 -6 -8 -6 -18 -1
-27 13 -21 12 -26 -6 -45 -15 -14 -18 -14 -40 0 -18 11 -43 15 -92 13 l-67 -3
-3 -69 c-2 -39 2 -74 8 -80 15 -15 12 -53 -6 -60 -8 -3 -23 -2 -33 4 -12 6
-22 5 -28 -1 -18 -18 -53 0 -53 26 0 13 5 27 10 30 6 3 10 40 10 81 l0 74 -70
0 c-39 0 -79 -5 -89 -12 -34 -21 -50 -4 -50 57 0 61 16 78 50 57 10 -7 50 -12
89 -12 l70 0 0 70 c0 39 -5 79 -12 89 -22 35 -4 49 61 49 45 0 61 -4 66 -15z
m905 -308 l0 -36 108 3 107 3 3 33 3 32 84 0 84 0 3 -32 3 -33 105 0 105 0 3
33 3 32 90 0 89 0 0 -35 0 -36 108 3 107 3 3 33 3 32 86 0 c84 0 85 0 79 -22
-4 -13 -10 -69 -13 -125 l-6 -103 -319 0 c-210 0 -317 3 -313 10 3 6 20 10 36
10 29 0 29 0 15 29 -13 25 -13 31 -1 47 21 28 18 34 -14 34 -19 0 -36 8 -46
23 l-16 22 -16 -22 c-10 -15 -26 -23 -44 -23 -33 0 -35 -7 -14 -36 12 -19 12
-24 0 -40 -21 -28 -18 -34 14 -34 17 0 33 -4 36 -10 4 -7 -113 -10 -344 -10
l-351 0 0 125 0 125 110 0 110 0 0 -35z m-260 -530 l0 -265 -690 0 -690 0 0
265 0 265 690 0 690 0 0 -265z m1410 154 c0 -110 0 -110 -22 -103 -166 53
-645 194 -660 194 -11 0 -162 -43 -337 -95 -174 -53 -324 -98 -333 -101 -16
-5 -18 5 -18 105 l0 111 685 0 685 0 0 -111z m-325 -79 c290 -88 320 -99 323
-119 3 -18 0 -22 -15 -17 -252 78 -652 196 -664 196 -9 0 -165 -45 -347 -100
-182 -55 -333 -100 -336 -100 -3 0 -6 9 -6 20 0 15 14 24 68 40 37 11 191 58
342 104 157 48 284 82 295 78 11 -3 164 -49 340 -102z m-54 -95 c396 -119 379
-113 379 -137 0 -15 -5 -19 -17 -15 -10 2 -164 48 -342 102 l-323 98 -337
-101 c-185 -56 -340 -102 -344 -102 -4 0 -7 9 -7 20 0 15 12 23 53 35 28 8
176 53 327 99 151 46 287 85 301 85 15 1 154 -37 310 -84z m-36 -101 c138 -41
287 -86 333 -100 45 -14 82 -29 82 -35 0 -5 -264 -9 -685 -9 -377 0 -685 4
-685 9 0 4 69 29 153 54 83 26 233 71 332 101 99 30 189 55 200 55 11 1 133
-33 270 -75z m-627 -1241 l-3 -1038 -60 5 c-90 8 -480 6 -557 -2 l-68 -7 0
1039 0 1040 345 0 345 0 -2 -1037z m-48 -1114 c52 -6 98 -14 102 -17 10 -10
-23 -416 -34 -428 -2 -1 -41 2 -88 8 -103 13 -436 16 -542 5 l-76 -8 -6 28
c-7 35 -32 235 -41 329 l-7 71 114 12 c214 21 382 21 578 0z m-904 -60 c15
-17 19 -40 23 -131 2 -60 0 -151 -4 -202 l-7 -93 -106 -21 c-455 -90 -886
-280 -1183 -520 -43 -34 -121 -108 -174 -164 l-98 -103 -26 31 c-14 17 -59 68
-99 113 -73 83 -134 169 -152 216 -8 21 -2 33 49 97 289 364 874 649 1586 772
174 30 168 30 191 5z m1407 -4 c521 -88 978 -262 1305 -497 106 -77 239 -202
301 -286 l49 -66 -23 -45 c-33 -66 -78 -125 -179 -239 l-89 -100 -47 57 c-208
250 -558 473 -966 614 -130 45 -407 119 -495 132 l-45 7 -12 136 c-19 209 -17
245 14 281 14 17 30 31 34 31 5 0 74 -11 153 -25z m-1234 -327 c21 -151 12
-138 92 -138 85 0 150 -15 179 -42 19 -18 20 -22 7 -41 -22 -33 -109 -76 -188
-93 -148 -31 -319 -3 -327 53 -3 18 7 30 45 53 26 17 60 34 75 37 29 6 32 14
43 118 11 109 15 124 39 128 11 2 22 5 22 6 1 0 7 -36 13 -81z m956 -26 c8
-122 13 -142 34 -142 27 0 119 -58 126 -80 9 -30 -10 -48 -68 -65 -102 -30
-257 -15 -365 36 -70 34 -102 70 -83 93 22 26 102 46 186 46 l82 0 13 98 c15
123 14 120 43 115 24 -5 25 -9 32 -101z m-419 -104 c-36 -120 4 -178 158 -234
252 -91 538 -19 499 126 l-10 37 61 -14 c75 -17 175 -46 280 -80 l79 -26 -37
-19 c-196 -101 -564 -200 -850 -229 -150 -15 -513 -6 -649 16 -262 41 -493
109 -697 202 -71 33 -74 36 -50 45 45 18 331 98 349 98 14 0 17 -9 17 -49 -1
-61 24 -92 99 -120 80 -30 175 -36 285 -17 217 38 334 142 275 246 -8 14 -14
28 -15 33 0 4 48 7 106 7 106 0 106 0 100 -22z m-2554 -577 c20 -4 61 -47 143
-146 64 -77 123 -145 131 -151 8 -6 46 -15 85 -18 118 -12 124 -21 23 -34
-104 -14 -404 -16 -404 -4 0 5 16 49 35 98 19 49 35 93 35 99 0 5 -37 45 -82
87 l-83 77 45 -1 c25 0 57 -3 72 -7z m4901 -73 l-81 -83 34 -85 c19 -47 37
-93 40 -103 6 -18 -3 -18 -201 -11 -264 9 -302 16 -180 33 50 7 99 14 110 16
12 3 74 70 144 154 119 146 132 156 191 160 21 1 13 -11 -57 -81z"/>
<path d="M3238 5370 c-8 -12 -24 -20 -40 -20 -30 0 -66 -39 -46 -51 17 -11 1
-39 -22 -39 -17 0 -19 4 -14 25 3 14 2 25 -2 26 -5 0 -20 3 -34 5 -33 6 -61 6
-67 1 -2 -3 7 -16 20 -31 13 -14 28 -40 33 -57 13 -44 63 -61 184 -62 131 -1
176 13 196 61 8 20 25 47 37 60 18 20 19 24 7 32 -8 6 -22 7 -30 4 -8 -3 -23
-7 -33 -9 -29 -6 -38 -16 -32 -36 5 -14 2 -19 -14 -19 -26 0 -36 17 -20 36 16
19 -14 54 -48 54 -13 0 -26 6 -29 14 -9 24 -33 27 -46 6z"/>
<path d="M3970 5370 c-6 -11 -21 -20 -34 -20 -33 0 -63 -35 -47 -54 16 -19 6
-36 -21 -36 -15 0 -19 5 -15 20 5 21 -1 29 -30 35 -10 2 -25 6 -33 9 -8 3 -22
2 -30 -4 -12 -8 -11 -12 7 -32 12 -13 28 -40 36 -60 20 -47 66 -62 197 -61
123 1 171 17 184 61 5 18 20 44 33 58 26 28 25 35 -3 35 -59 0 -108 -21 -85
-35 18 -11 13 -26 -9 -26 -23 0 -39 28 -22 39 20 12 -16 51 -46 51 -16 0 -32
8 -40 20 -7 11 -16 20 -22 20 -5 0 -14 -9 -20 -20z"/>
<path d="M3609 5152 c-8 -12 -24 -22 -36 -22 -23 0 -63 -32 -63 -49 0 -5 5
-11 12 -13 17 -6 0 -28 -22 -28 -14 0 -19 6 -17 22 2 18 -5 23 -36 31 -20 5
-45 6 -54 3 -14 -6 -14 -9 5 -29 12 -13 27 -38 33 -56 8 -23 22 -38 48 -48 49
-21 193 -27 261 -11 50 12 57 17 73 53 11 22 28 50 39 62 19 20 19 23 5 29 -9
3 -34 2 -54 -3 -31 -8 -38 -13 -36 -31 2 -16 -3 -22 -17 -22 -25 0 -35 17 -20
35 15 17 -20 55 -51 55 -11 0 -29 10 -39 22 l-17 22 -14 -22z"/>
<path d="M4210 4540 l0 -189 -29 -15 c-45 -24 -108 -102 -128 -159 -43 -127
-2 -268 100 -349 l52 -41 5 -451 5 -451 128 -3 127 -3 0 456 c0 267 4 455 9
455 5 0 32 18 59 40 101 80 141 221 98 347 -20 60 -90 144 -136 163 l-30 12 0
189 0 189 -130 0 -130 0 0 -190z m259 -233 c55 -27 105 -85 125 -145 25 -72
25 -72 -54 -72 l-70 0 0 75 0 75 -55 0 -55 0 0 51 0 51 33 -7 c17 -4 52 -17
76 -28z m-249 -312 l0 -65 55 0 55 0 0 -60 c0 -56 -2 -60 -22 -60 -36 0 -120
44 -155 81 -35 38 -72 112 -73 147 0 21 4 22 70 22 l70 0 0 -65z"/>
<path d="M1735 7116 c-34 -16 -81 -55 -148 -125 -89 -93 -116 -137 -67 -111
10 5 26 10 35 10 17 0 359 -321 376 -353 8 -13 6 -25 -5 -42 -11 -17 -12 -26
-5 -31 7 -4 48 31 97 79 66 67 84 89 75 98 -9 9 -16 9 -27 -1 -9 -7 -26 -10
-38 -6 -24 5 -176 152 -167 160 2 3 74 -15 159 -40 l154 -44 53 52 c29 29 53
56 53 60 0 4 -14 8 -31 8 -29 0 -132 23 -246 56 l-51 15 5 59 c5 53 3 65 -20
99 -26 39 -95 81 -133 81 -10 0 -41 -11 -69 -24z m60 -96 c50 -40 85 -88 85
-118 0 -14 -9 -40 -21 -59 -18 -29 -24 -32 -38 -21 -39 29 -171 164 -171 175
0 19 51 53 80 53 15 0 44 -13 65 -30z"/>
<path d="M7019 6881 c-130 -51 -236 -171 -255 -290 -15 -93 44 -203 130 -242
50 -23 151 -26 159 -5 8 21 -2 26 -55 26 -144 0 -203 122 -114 237 83 107 257
223 333 223 27 0 43 -8 70 -35 34 -34 36 -38 30 -92 -3 -31 -17 -79 -31 -107
-14 -28 -22 -54 -18 -58 9 -9 164 117 160 129 -2 4 -14 8 -28 8 -22 0 -28 8
-45 62 -35 110 -109 163 -225 162 -38 0 -84 -7 -111 -18z"/>
<path d="M1280 6606 c-63 -90 -116 -169 -118 -175 -5 -16 24 -13 38 4 7 8 18
15 25 15 18 0 422 -287 429 -305 8 -23 -25 -85 -49 -91 -11 -2 -152 14 -314
36 -161 22 -297 40 -302 40 -29 0 14 -50 205 -236 169 -165 215 -215 218 -238
5 -48 22 -40 56 29 18 36 32 68 32 70 0 11 -28 4 -40 -10 -20 -24 -42 -17 -87
26 l-43 40 36 71 36 71 48 -6 c73 -9 93 -22 85 -57 -3 -15 -2 -31 4 -34 13 -8
114 191 107 210 -3 8 1 14 8 14 11 0 208 267 249 336 7 12 -130 141 -139 131
-3 -3 6 -28 20 -56 28 -54 34 -126 15 -164 -17 -33 -51 -67 -67 -67 -16 0
-202 129 -202 140 0 4 9 15 20 25 26 24 75 24 119 2 19 -10 38 -14 43 -9 7 7
-155 130 -230 175 -26 16 -23 -1 7 -44 33 -45 39 -84 18 -113 -13 -18 -18 -15
-88 34 -118 85 -121 88 -104 120 8 15 30 41 50 59 40 35 83 40 140 17 46 -20
54 -3 13 26 -18 14 -50 36 -70 51 -20 15 -40 27 -45 27 -4 -1 -60 -74 -123
-164z m-50 -626 c36 -6 80 -12 97 -15 l33 -6 -31 -61 -31 -61 -74 74 c-41 40
-74 75 -74 76 0 5 10 4 80 -7z"/>
<path d="M7587 6357 c3 -24 0 -36 -14 -48 -32 -28 -419 -239 -438 -239 -10 0
-26 7 -36 16 -43 39 -34 1 24 -104 40 -73 66 -111 75 -107 7 3 10 0 7 -5 -9
-15 48 -150 63 -150 7 0 12 14 12 35 0 29 5 37 32 51 55 29 341 144 345 140 3
-2 -65 -105 -149 -228 -179 -259 -171 -245 -164 -257 3 -5 103 31 223 80 119
49 240 98 269 108 l52 20 27 -21 c45 -35 45 -11 -2 99 -16 39 -43 45 -35 8 8
-43 -16 -57 -286 -166 -18 -7 -21 -6 -16 4 10 16 178 259 219 317 l33 45 -28
70 c-15 38 -32 71 -37 72 -5 2 -17 -15 -27 -37 -10 -22 -30 -46 -44 -54 -55
-28 -403 -166 -419 -166 -9 0 -30 12 -45 27 -37 35 -37 75 0 101 54 37 409
232 424 232 8 0 23 -9 33 -20 20 -22 35 -26 35 -9 0 7 -26 58 -57 115 -59 106
-86 132 -76 71z"/>
<path d="M1230 5671 c0 -5 20 -25 44 -44 49 -41 76 -90 76 -140 0 -45 -18 -94
-37 -101 -13 -5 -366 102 -465 141 -35 14 -38 18 -38 55 0 69 -23 38 -62 -83
-20 -63 -37 -117 -37 -121 -2 -16 25 -7 37 12 21 34 24 33 440 -101 71 -24 92
-40 92 -75 0 -60 24 -10 81 169 34 105 63 195 66 199 4 8 -168 98 -187 98 -5
0 -10 -4 -10 -9z"/>
<path d="M7797 5486 c-73 -27 -108 -76 -146 -202 -12 -39 -31 -80 -44 -92 -47
-45 -132 -37 -156 14 -29 64 3 131 86 179 29 17 52 36 53 43 0 16 7 16 -115
-14 -70 -18 -105 -31 -105 -40 0 -8 9 -14 21 -14 19 0 20 -4 14 -49 -12 -88
27 -171 98 -208 73 -37 201 -6 251 61 13 17 38 75 56 128 36 111 60 138 121
138 29 0 42 -6 58 -26 41 -52 16 -120 -64 -176 -42 -29 -56 -48 -37 -48 4 0
49 10 100 22 90 22 112 35 72 45 -17 5 -20 14 -20 72 0 75 -19 123 -62 155
-35 25 -128 32 -181 12z"/>
<path d="M685 5239 c-4 -5 -21 -99 -39 -209 -24 -150 -29 -200 -20 -204 7 -3
15 6 18 20 4 13 16 26 29 29 29 7 494 -70 513 -85 7 -7 14 -23 14 -36 0 -13 6
-24 13 -24 15 0 83 408 70 420 -16 15 -167 60 -175 52 -4 -4 12 -22 37 -40 63
-44 85 -84 85 -154 0 -63 -17 -91 -53 -84 -12 3 -53 10 -92 16 -142 22 -149
27 -96 81 25 25 37 29 81 29 37 0 50 4 48 12 -4 11 -227 54 -290 57 -32 2 -19
-14 30 -36 48 -22 72 -53 72 -93 0 -12 -7 -20 -16 -20 -37 0 -210 33 -222 43
-8 6 -10 22 -6 46 17 93 51 128 133 132 67 4 50 26 -31 39 -40 6 -78 13 -85
15 -7 2 -15 0 -18 -6z"/>
<path d="M8025 5083 c-94 -11 -115 -15 -115 -23 0 -5 17 -12 38 -15 79 -13
110 -36 124 -93 5 -17 1 -23 -15 -27 -61 -12 -496 -55 -511 -49 -9 3 -19 17
-22 30 -6 24 -34 34 -34 13 0 -19 21 -203 26 -226 6 -30 24 -29 24 0 0 47 22
53 270 81 129 14 245 26 258 26 53 0 8 -104 -55 -128 -16 -5 -37 -13 -47 -16
-13 -5 -16 -10 -9 -17 7 -7 36 -7 94 1 46 6 86 13 88 15 3 4 -36 376 -44 413
-5 22 -8 23 -70 15z"/>
<path d="M993 4711 c-58 -15 -97 -49 -158 -138 -65 -94 -97 -119 -146 -108
-62 14 -85 69 -52 125 17 29 98 80 126 80 15 0 33 18 26 25 -2 1 -48 6 -101
10 -76 6 -98 5 -98 -5 0 -7 7 -18 16 -25 16 -11 16 -15 -1 -58 -50 -132 26
-237 173 -237 82 0 142 45 216 162 42 66 59 78 114 78 60 0 92 -30 92 -87 0
-38 -5 -50 -33 -78 -30 -30 -114 -65 -155 -65 -7 0 -12 -6 -10 -12 3 -9 38
-14 116 -16 109 -3 128 3 98 27 -12 10 -11 21 6 71 28 80 19 138 -28 190 -47
52 -132 78 -201 61z"/>
<path d="M7527 4563 c-4 -3 -7 -62 -7 -130 0 -103 2 -123 15 -123 8 0 15 8 15
18 0 40 14 42 281 42 268 0 272 -1 280 -44 2 -11 10 -21 17 -24 9 -3 12 27 12
127 0 110 -2 131 -15 131 -8 0 -15 -8 -15 -19 0 -39 -17 -41 -286 -39 l-259 3
-10 33 c-9 32 -16 38 -28 25z"/>
<path d="M986 4295 c-56 -20 -93 -60 -138 -150 -54 -108 -71 -125 -125 -125
-53 0 -83 26 -83 73 1 56 40 101 114 132 41 17 47 35 13 35 -67 0 -177 -14
-177 -23 0 -5 8 -15 17 -22 15 -11 15 -19 5 -66 -20 -91 12 -164 85 -195 41
-18 124 -18 166 -1 44 19 103 87 133 155 36 83 68 112 120 112 57 0 72 -7 90
-42 34 -66 -10 -137 -111 -179 -30 -12 -55 -27 -55 -32 0 -9 206 0 223 10 14
8 7 21 -14 26 -17 5 -20 11 -15 29 13 43 18 107 12 142 -19 102 -147 161 -260
121z"/>
<path d="M7956 4232 c-7 -12 -3 -16 45 -31 50 -16 80 -51 86 -101 6 -42 6 -42
-23 -36 -16 3 -130 17 -254 32 -238 27 -270 37 -270 79 0 14 -6 25 -13 25 -9
0 -17 -32 -25 -108 -15 -132 -15 -152 -2 -152 6 0 15 11 20 25 5 14 16 28 24
31 13 5 432 -39 499 -52 19 -4 27 -12 27 -26 0 -29 -63 -88 -93 -88 -14 0 -38
-5 -54 -11 l-28 -12 25 -7 c14 -4 57 -10 97 -14 l72 -7 5 43 c10 68 46 375 46
386 0 5 -26 13 -57 16 -32 4 -72 9 -89 12 -18 3 -35 1 -38 -4z"/>
<path d="M1045 3854 c-340 -82 -331 -81 -360 -54 -14 13 -28 21 -31 17 -11
-11 27 -158 39 -154 7 2 13 16 15 30 2 15 13 34 25 41 23 15 285 81 293 74 2
-3 -64 -75 -146 -161 -83 -87 -150 -165 -150 -175 0 -9 4 -33 9 -52 5 -19 12
-47 15 -62 8 -34 23 -36 35 -5 18 47 48 59 254 108 228 55 272 59 282 29 9
-29 39 -26 32 3 -3 12 -11 48 -18 80 -12 57 -39 81 -39 34 0 -13 -8 -31 -18
-40 -15 -14 -391 -112 -398 -104 -1 1 88 96 197 212 175 184 219 238 192 234
-5 -1 -107 -25 -228 -55z"/>
<path d="M7513 3739 c-46 -14 -98 -69 -117 -125 -21 -61 -20 -89 4 -141 29
-65 83 -93 283 -149 206 -57 227 -66 227 -99 0 -48 28 -27 45 33 9 31 18 64
21 74 8 27 -13 30 -30 3 -23 -35 -54 -33 -245 20 -250 70 -277 89 -272 198 2
44 45 77 99 77 42 0 396 -91 435 -111 11 -7 17 -22 17 -44 0 -23 5 -35 13 -35
9 0 24 38 42 103 15 56 30 110 32 120 7 24 -19 22 -35 -3 -7 -11 -20 -20 -30
-20 -10 0 -97 22 -195 49 -198 56 -248 64 -294 50z"/>
<path d="M1268 3418 c-43 -11 -78 -24 -78 -28 0 -4 26 -11 58 -15 84 -10 127
-38 159 -103 22 -45 24 -55 12 -67 -21 -20 -211 -96 -226 -91 -7 3 -13 20 -13
39 0 33 23 63 78 99 14 9 19 19 13 22 -13 8 -292 -105 -285 -115 2 -4 27 -5
54 -2 53 6 90 -9 109 -46 9 -17 0 -23 -90 -60 -54 -22 -108 -41 -118 -41 -24
0 -51 65 -51 122 0 36 6 47 46 85 25 25 43 47 40 50 -6 7 -166 -58 -166 -67 0
-5 117 -299 147 -367 10 -25 30 -14 25 15 -2 16 2 33 10 39 16 13 457 193 473
193 18 0 45 -34 45 -56 0 -10 -33 -76 -73 -146 l-73 -127 -32 21 c-26 16 -44
19 -87 16 -70 -6 -124 -46 -143 -106 -19 -58 -1 -115 84 -257 70 -118 97 -143
87 -81 -4 28 -1 36 23 53 69 49 405 243 420 243 10 0 26 -8 36 -17 11 -10 22
-13 28 -7 10 11 -109 214 -127 214 -8 0 -10 -11 -6 -33 3 -24 0 -36 -14 -48
-31 -27 -175 -110 -184 -107 -5 2 29 66 75 143 76 125 84 142 72 160 -39 62
-71 129 -141 303 -57 141 -82 192 -94 191 -9 -1 -51 -10 -93 -21z m123 -759
c16 -17 29 -34 29 -38 0 -3 -12 -13 -28 -22 -15 -8 -65 -37 -111 -64 l-83 -49
-19 23 c-41 50 -18 104 64 151 69 40 110 39 148 -1z"/>
<path d="M7292 3253 c-41 -75 -99 -224 -91 -229 6 -3 17 3 25 15 9 12 26 21
41 21 28 0 482 -200 483 -213 0 -5 -14 -22 -31 -39 -29 -30 -32 -30 -100 -26
-47 4 -69 2 -66 -5 2 -6 40 -28 84 -48 l80 -37 91 202 91 201 -81 38 c-88 41
-121 37 -63 -7 47 -36 68 -79 60 -122 -3 -19 -11 -34 -17 -34 -18 0 -459 203
-475 218 -9 10 -13 25 -9 43 6 33 -9 48 -22 22z"/>
<path d="M7094 2853 c-31 -48 -83 -130 -116 -181 l-60 -92 52 -47 c89 -80 100
-87 100 -68 0 9 -8 29 -19 43 -33 47 -46 107 -33 151 15 47 48 91 69 91 13 0
190 -106 213 -127 3 -3 -8 -16 -23 -29 -33 -28 -75 -31 -119 -8 -19 10 -34 12
-40 6 -5 -5 36 -38 109 -85 163 -104 186 -111 118 -36 -37 42 -45 81 -22 113
12 16 20 12 110 -46 53 -35 97 -68 97 -73 0 -21 -53 -93 -80 -109 -35 -20 -65
-20 -119 -1 -67 23 -50 -4 36 -58 58 -37 78 -45 84 -35 4 7 55 87 113 178 73
113 102 168 95 175 -7 7 -13 4 -20 -7 -21 -37 -61 -20 -269 115 -204 133 -205
133 -205 169 0 20 -3 39 -7 43 -4 4 -32 -33 -64 -82z"/>
<path d="M5061 1271 c-26 -7 -61 -77 -158 -316 -40 -98 -44 -116 -38 -162 4
-29 9 -55 13 -57 4 -2 51 4 105 14 78 14 97 15 97 4 0 -7 5 -36 11 -64 12 -57
2 -53 100 -34 25 5 30 10 25 27 -3 12 -8 41 -12 64 -6 39 -5 42 18 48 23 6 25
9 17 48 -4 23 -8 46 -9 51 0 4 -11 6 -24 4 -14 -3 -27 0 -29 6 -2 6 -19 93
-38 194 -18 101 -38 182 -44 181 -5 -1 -21 -4 -34 -8z m-25 -284 c12 -62 21
-113 20 -114 -4 -4 -151 -31 -154 -28 -1 1 21 61 49 134 29 72 55 128 58 125
3 -3 16 -56 27 -117z"/>
<path d="M3756 1207 c-60 -18 -111 -38 -114 -46 -3 -10 4 -12 35 -6 67 11 67
5 28 -226 -20 -112 -38 -212 -41 -222 -8 -25 -42 -40 -75 -33 -22 4 -29 2 -29
-9 0 -8 4 -15 8 -15 4 0 71 -11 148 -25 160 -29 154 -28 154 -15 0 5 -16 16
-35 24 -19 8 -38 22 -41 30 -3 9 15 135 40 280 48 277 51 296 39 295 -5 0 -57
-15 -117 -32z"/>
<path d="M5533 1210 c-31 -13 -63 -68 -63 -108 0 -95 84 -161 164 -128 46 19
66 51 66 107 0 98 -84 162 -167 129z"/>
<path d="M4545 1196 c-51 -22 -95 -83 -119 -163 -11 -35 15 -28 39 10 42 67
110 70 153 7 49 -73 12 -191 -117 -370 -33 -47 -61 -91 -61 -99 0 -11 22 -13
128 -7 186 10 209 14 216 40 3 11 8 57 11 101 5 67 4 77 -7 61 -36 -55 -52
-63 -137 -70 -46 -4 -85 -6 -87 -3 -3 2 27 42 66 88 99 118 123 171 118 254
-4 68 -21 102 -69 137 -33 24 -97 31 -134 14z"/>
<path d="M3136 1169 c-36 -31 -59 -87 -49 -117 17 -56 29 -75 54 -87 91 -47
188 27 176 134 -11 95 -109 134 -181 70z"/>
<path d="M4101 1182 c-50 -25 -74 -63 -79 -126 -4 -47 0 -62 22 -101 15 -25
36 -51 47 -58 26 -16 24 -22 -11 -37 -95 -39 -119 -170 -45 -244 87 -88 256
-61 306 48 37 81 21 161 -46 235 -21 23 -36 43 -34 44 2 1 17 9 33 17 44 22
69 62 69 109 0 48 -22 85 -66 111 -42 26 -148 27 -196 2z m143 -34 c21 -29 21
-120 1 -159 l-16 -30 -29 21 c-89 64 -93 190 -5 190 24 0 39 -7 49 -22z m-37
-355 c23 -30 28 -46 28 -94 0 -42 -5 -62 -19 -78 -24 -27 -70 -27 -94 0 -37
38 -35 147 2 204 20 31 41 23 83 -32z"/>
</g>
</svg>
