<?xml version="1.0" standalone="no"?>
<!DOCTYPE svg PUBLIC "-//W3C//DTD SVG 20010904//EN"
 "http://www.w3.org/TR/2001/REC-SVG-20010904/DTD/svg10.dtd">
<svg version="1.0" xmlns="http://www.w3.org/2000/svg"
 width="1200.000000pt" height="1790.000000pt" viewBox="0 0 1200.000000 1790.000000"
 preserveAspectRatio="xMidYMid meet">

<g transform="translate(0.000000,1790.000000) scale(0.100000,-0.100000)"
fill="#000000" stroke="none">
<path d="M1197 16722 l-797 -797 0 -1720 0 -1720 798 -798 797 -797 2233 0
2232 0 0 -1295 0 -1295 -280 0 -280 0 0 -1010 0 -1010 583 0 582 0 793 793
792 792 0 1730 0 1730 -793 793 -792 792 -2235 2 -2235 3 0 1290 0 1290 1933
3 1932 2 0 -785 0 -785 1095 0 1095 0 0 1002 0 1003 -792 792 -793 793 -2535
0 -2535 0 -798 -798z"/>
<path d="M4227 9812 l-797 -797 0 -3520 0 -3520 798 -798 797 -797 2530 0
2530 0 798 798 797 797 0 998 0 997 -1095 0 -1095 0 0 -785 0 -785 -1935 0
-1935 0 0 3090 0 3090 280 0 280 0 0 1015 0 1015 -578 0 -577 0 -798 -798z"/>
<path d="M8930 9595 l0 -1015 280 0 280 0 0 -785 0 -785 1095 0 1095 0 0 1003
0 1002 -798 798 -797 797 -578 0 -577 0 0 -1015z"/>
<path d="M400 8872 l0 -997 798 -798 797 -797 578 0 577 0 0 1010 0 1010 -277
2 -278 3 -3 783 -2 782 -1095 0 -1095 0 0 -998z"/>
</g>
</svg>
